<?xml version="1.0" standalone="no"?>
<!DOCTYPE svg PUBLIC "-//W3C//DTD SVG 20010904//EN"
 "http://www.w3.org/TR/2001/REC-SVG-20010904/DTD/svg10.dtd">
<svg version="1.0" xmlns="http://www.w3.org/2000/svg"
 width="32.000000pt" height="32.000000pt" viewBox="0 0 32.000000 32.000000"
 preserveAspectRatio="xMidYMid meet">
<metadata>
Created by potrace 1.13, written by Peter Selinger 2001-2015
</metadata>
<g transform="translate(0.000000,32.000000) scale(0.100000,-0.100000)" stroke="none">
<path d="M62 308 c-14 -14 -16 -88 -2 -88 6 0 10 16 10 35 0 42 14 47 120 43
l75 -3 0 -135 0 -135 -75 -3 c-106 -4 -120 1 -120 43 0 19 -4 35 -10 35 -14 0
-12 -74 2 -88 8 -8 48 -12 115 -12 91 0 103 2 113 19 13 26 13 256 0 282 -10
17 -22 19 -113 19 -67 0 -107 -4 -115 -12z"/>
<path d="M100 221 c0 -16 -8 -20 -42 -23 -42 -3 -43 -4 -43 -38 0 -34 1 -35
43 -38 34 -3 42 -7 42 -23 0 -27 9 -24 59 21 l44 40 -44 40 c-50 45 -59 48
-59 21z"/>
</g>
</svg>
