<?xml version="1.0" standalone="no"?>
<!DOCTYPE svg PUBLIC "-//W3C//DTD SVG 20010904//EN"
 "http://www.w3.org/TR/2001/REC-SVG-20010904/DTD/svg10.dtd">
<svg version="1.0" xmlns="http://www.w3.org/2000/svg"
 width="32.000000pt" height="32.000000pt" viewBox="0 0 32.000000 32.000000"
 preserveAspectRatio="xMidYMid meet">
<metadata>
Created by potrace 1.13, written by Peter Selinger 2001-2015
</metadata>
<g transform="translate(0.000000,32.000000) scale(0.100000,-0.100000)" stroke="none">
<path d="M45 307 c-3 -7 -4 -78 -3 -157 l3 -145 115 0 115 0 3 43 c2 25 -1 42
-7 42 -6 0 -11 -13 -11 -29 0 -36 -13 -41 -100 -41 -105 0 -100 -7 -100 140 0
147 -5 140 100 140 87 0 100 -5 100 -41 0 -16 5 -29 11 -29 6 0 9 17 7 43 l-3
42 -113 3 c-86 2 -114 0 -117 -11z"/>
<path d="M200 221 c0 -16 -7 -20 -42 -23 -42 -3 -43 -4 -43 -38 0 -34 1 -35
43 -38 35 -3 42 -7 42 -23 0 -26 8 -23 59 24 l41 37 -41 38 c-51 46 -59 49
-59 23z"/>
</g>
</svg>
